<mxfile host="app.diagrams.net" agent="Mozilla/5.0 (Macintosh; Intel Mac OS X 10_15_7) AppleWebKit/605.1.15 (KHTML, like Gecko) Version/17.6 Safari/605.1.15" version="24.7.17">
  <diagram name="Page-1" id="e7e014a7-5840-1c2e-5031-d8a46d1fe8dd">
    <mxGraphModel dx="2963" dy="1546" grid="0" gridSize="10" guides="1" tooltips="1" connect="1" arrows="1" fold="1" page="1" pageScale="1" pageWidth="3300" pageHeight="4681" background="#ffffff" math="0" shadow="0">
      <root>
        <mxCell id="0" />
        <mxCell id="1" parent="0" />
        <mxCell id="2" value="Não Autenticado" style="swimlane;whiteSpace=wrap;labelBackgroundColor=none;fontSize=11;" parent="1" vertex="1">
          <mxGeometry x="120" y="29" width="437" height="1600" as="geometry" />
        </mxCell>
        <mxCell id="5" value="" style="ellipse;shape=startState;labelBackgroundColor=none;" parent="2" vertex="1">
          <mxGeometry x="70" y="40" width="30" height="30" as="geometry" />
        </mxCell>
        <mxCell id="6" value="" style="edgeStyle=elbowEdgeStyle;elbow=horizontal;verticalAlign=bottom;endArrow=open;endSize=8;endFill=1;rounded=0;labelBackgroundColor=none;fontColor=default;" parent="2" source="5" target="7" edge="1">
          <mxGeometry x="100" y="40" as="geometry">
            <mxPoint x="85" y="110" as="targetPoint" />
          </mxGeometry>
        </mxCell>
        <mxCell id="7" value="Abrir Aplicação" style="labelBackgroundColor=none;rounded=1;" parent="2" vertex="1">
          <mxGeometry x="30" y="110" width="110" height="50" as="geometry" />
        </mxCell>
        <mxCell id="6K1Hj72WUw8g_JZl9jF_-43" value="" style="edgeStyle=elbowEdgeStyle;elbow=horizontal;verticalAlign=bottom;endArrow=open;endSize=8;endFill=1;rounded=0;labelBackgroundColor=none;fontColor=default;exitX=0.5;exitY=1;exitDx=0;exitDy=0;" parent="2" source="7" target="6K1Hj72WUw8g_JZl9jF_-44" edge="1">
          <mxGeometry x="-205" y="-88" as="geometry">
            <mxPoint x="85" y="210" as="targetPoint" />
            <mxPoint x="85" y="170" as="sourcePoint" />
          </mxGeometry>
        </mxCell>
        <mxCell id="6K1Hj72WUw8g_JZl9jF_-44" value="Ver Coleções&#xa;Públicas" style="labelBackgroundColor=none;rounded=1;" parent="2" vertex="1">
          <mxGeometry x="30" y="200" width="110" height="50" as="geometry" />
        </mxCell>
        <mxCell id="6K1Hj72WUw8g_JZl9jF_-62" value="Acessar Página&lt;div&gt;Principal&lt;/div&gt;" style="rounded=1;whiteSpace=wrap;html=1;labelBackgroundColor=none;" parent="2" vertex="1">
          <mxGeometry x="25" y="282.00000000000006" width="120" height="60" as="geometry" />
        </mxCell>
        <mxCell id="6K1Hj72WUw8g_JZl9jF_-87" value="" style="edgeStyle=orthogonalEdgeStyle;rounded=0;orthogonalLoop=1;jettySize=auto;html=1;" parent="2" source="6K1Hj72WUw8g_JZl9jF_-84" target="6K1Hj72WUw8g_JZl9jF_-86" edge="1">
          <mxGeometry relative="1" as="geometry" />
        </mxCell>
        <mxCell id="6K1Hj72WUw8g_JZl9jF_-84" value="&lt;div&gt;Listar Bactérias/&lt;/div&gt;&lt;div&gt;Leveduras&amp;nbsp;&lt;/div&gt;&lt;div&gt;Públicas&lt;/div&gt;" style="whiteSpace=wrap;html=1;rounded=1;labelBackgroundColor=none;" parent="2" vertex="1">
          <mxGeometry x="25" y="505" width="120" height="60" as="geometry" />
        </mxCell>
        <mxCell id="6K1Hj72WUw8g_JZl9jF_-86" value="&lt;div&gt;Selecionar&lt;/div&gt;&lt;div&gt;Bactéria/Levedura&lt;/div&gt;" style="whiteSpace=wrap;html=1;rounded=1;labelBackgroundColor=none;" parent="2" vertex="1">
          <mxGeometry x="25" y="625" width="120" height="60" as="geometry" />
        </mxCell>
        <mxCell id="6K1Hj72WUw8g_JZl9jF_-93" value="" style="rounded=0;orthogonalLoop=1;jettySize=auto;html=1;exitX=0.5;exitY=1;exitDx=0;exitDy=0;entryX=0.5;entryY=0;entryDx=0;entryDy=0;" parent="2" source="6K1Hj72WUw8g_JZl9jF_-86" target="6K1Hj72WUw8g_JZl9jF_-101" edge="1">
          <mxGeometry relative="1" as="geometry">
            <mxPoint x="85" y="697" as="sourcePoint" />
            <mxPoint x="86" y="747" as="targetPoint" />
          </mxGeometry>
        </mxCell>
        <mxCell id="6K1Hj72WUw8g_JZl9jF_-101" value="Ver Ficha&lt;div&gt;Técnica&lt;/div&gt;" style="whiteSpace=wrap;html=1;rounded=1;labelBackgroundColor=none;" parent="2" vertex="1">
          <mxGeometry x="25" y="764" width="120" height="60" as="geometry" />
        </mxCell>
        <mxCell id="6K1Hj72WUw8g_JZl9jF_-140" value="" style="edgeStyle=orthogonalEdgeStyle;rounded=0;orthogonalLoop=1;jettySize=auto;html=1;exitX=0.5;exitY=1;exitDx=0;exitDy=0;" parent="2" source="6K1Hj72WUw8g_JZl9jF_-62" target="6K1Hj72WUw8g_JZl9jF_-141" edge="1">
          <mxGeometry relative="1" as="geometry">
            <mxPoint x="295" y="290" as="sourcePoint" />
          </mxGeometry>
        </mxCell>
        <mxCell id="6K1Hj72WUw8g_JZl9jF_-141" value="Selecionar&lt;div&gt;Ação&lt;/div&gt;" style="rhombus;whiteSpace=wrap;html=1;rounded=0;labelBackgroundColor=none;" parent="2" vertex="1">
          <mxGeometry x="30" y="387" width="110" height="84" as="geometry" />
        </mxCell>
        <mxCell id="6K1Hj72WUw8g_JZl9jF_-144" value="Tipo de microorganismo" style="text;html=1;align=center;verticalAlign=middle;resizable=0;points=[];autosize=1;strokeColor=none;fillColor=none;" parent="2" vertex="1">
          <mxGeometry x="154" y="428" width="146" height="26" as="geometry" />
        </mxCell>
        <mxCell id="6K1Hj72WUw8g_JZl9jF_-147" value="Perfil" style="text;html=1;align=center;verticalAlign=middle;resizable=0;points=[];autosize=1;strokeColor=none;fillColor=none;" parent="2" vertex="1">
          <mxGeometry x="154" y="383" width="45" height="26" as="geometry" />
        </mxCell>
        <mxCell id="3" value="Sistema" style="swimlane;whiteSpace=wrap;labelBackgroundColor=none;" parent="1" vertex="1">
          <mxGeometry x="1868" y="29" width="576" height="1600" as="geometry" />
        </mxCell>
        <mxCell id="6K1Hj72WUw8g_JZl9jF_-61" value="" style="edgeStyle=orthogonalEdgeStyle;rounded=0;orthogonalLoop=1;jettySize=auto;html=1;" parent="3" source="6K1Hj72WUw8g_JZl9jF_-58" target="6K1Hj72WUw8g_JZl9jF_-60" edge="1">
          <mxGeometry relative="1" as="geometry" />
        </mxCell>
        <mxCell id="6K1Hj72WUw8g_JZl9jF_-66" value="" style="edgeStyle=orthogonalEdgeStyle;rounded=0;orthogonalLoop=1;jettySize=auto;html=1;" parent="3" source="6K1Hj72WUw8g_JZl9jF_-60" target="6K1Hj72WUw8g_JZl9jF_-65" edge="1">
          <mxGeometry relative="1" as="geometry" />
        </mxCell>
        <mxCell id="6K1Hj72WUw8g_JZl9jF_-58" value="Validação" style="whiteSpace=wrap;html=1;labelBackgroundColor=none;rounded=1;" parent="3" vertex="1">
          <mxGeometry x="57" y="51" width="110" height="50" as="geometry" />
        </mxCell>
        <mxCell id="6K1Hj72WUw8g_JZl9jF_-76" value="" style="rounded=0;orthogonalLoop=1;jettySize=auto;html=1;" parent="3" source="6K1Hj72WUw8g_JZl9jF_-60" target="6K1Hj72WUw8g_JZl9jF_-75" edge="1">
          <mxGeometry relative="1" as="geometry" />
        </mxCell>
        <mxCell id="6K1Hj72WUw8g_JZl9jF_-60" value="User&lt;div&gt;Válido?&lt;/div&gt;" style="rhombus;whiteSpace=wrap;html=1;labelBackgroundColor=none;" parent="3" vertex="1">
          <mxGeometry x="72" y="136" width="80" height="80" as="geometry" />
        </mxCell>
        <mxCell id="6K1Hj72WUw8g_JZl9jF_-65" value="Mensagem de&amp;nbsp;&lt;div&gt;Erro&lt;/div&gt;" style="whiteSpace=wrap;html=1;labelBackgroundColor=none;rounded=1;" parent="3" vertex="1">
          <mxGeometry x="196" y="146" width="120" height="60" as="geometry" />
        </mxCell>
        <mxCell id="6K1Hj72WUw8g_JZl9jF_-74" value="No" style="text;html=1;align=center;verticalAlign=middle;resizable=0;points=[];autosize=1;strokeColor=none;fillColor=none;" parent="3" vertex="1">
          <mxGeometry x="152" y="149" width="33" height="26" as="geometry" />
        </mxCell>
        <mxCell id="6K1Hj72WUw8g_JZl9jF_-75" value="Microorganismo&amp;nbsp;&lt;div&gt;&lt;div&gt;Data Call&lt;/div&gt;&lt;/div&gt;" style="whiteSpace=wrap;html=1;labelBackgroundColor=none;rounded=1;" parent="3" vertex="1">
          <mxGeometry x="54" y="283" width="120" height="60" as="geometry" />
        </mxCell>
        <mxCell id="6K1Hj72WUw8g_JZl9jF_-77" value="Yes" style="text;html=1;align=center;verticalAlign=middle;resizable=0;points=[];autosize=1;strokeColor=none;fillColor=none;" parent="3" vertex="1">
          <mxGeometry x="114" y="235" width="38" height="26" as="geometry" />
        </mxCell>
        <mxCell id="6K1Hj72WUw8g_JZl9jF_-80" value="Bactérias/Leveduras&lt;div&gt;Data Call&lt;/div&gt;" style="whiteSpace=wrap;html=1;rounded=1;labelBackgroundColor=none;" parent="3" vertex="1">
          <mxGeometry x="59" y="506.00000000000006" width="120" height="60" as="geometry" />
        </mxCell>
        <mxCell id="6K1Hj72WUw8g_JZl9jF_-119" value="" style="edgeStyle=orthogonalEdgeStyle;rounded=0;orthogonalLoop=1;jettySize=auto;html=1;" parent="3" source="6K1Hj72WUw8g_JZl9jF_-112" target="6K1Hj72WUw8g_JZl9jF_-118" edge="1">
          <mxGeometry relative="1" as="geometry" />
        </mxCell>
        <mxCell id="6K1Hj72WUw8g_JZl9jF_-112" value="Respetivas&lt;div&gt;Data Calls&lt;/div&gt;" style="html=1;whiteSpace=wrap;rounded=1;" parent="3" vertex="1">
          <mxGeometry x="74" y="843" width="110" height="50" as="geometry" />
        </mxCell>
        <mxCell id="6K1Hj72WUw8g_JZl9jF_-121" value="" style="edgeStyle=orthogonalEdgeStyle;rounded=0;orthogonalLoop=1;jettySize=auto;html=1;" parent="3" source="6K1Hj72WUw8g_JZl9jF_-118" target="6K1Hj72WUw8g_JZl9jF_-120" edge="1">
          <mxGeometry relative="1" as="geometry" />
        </mxCell>
        <mxCell id="6K1Hj72WUw8g_JZl9jF_-124" value="" style="edgeStyle=orthogonalEdgeStyle;rounded=0;orthogonalLoop=1;jettySize=auto;html=1;" parent="3" source="6K1Hj72WUw8g_JZl9jF_-118" target="6K1Hj72WUw8g_JZl9jF_-123" edge="1">
          <mxGeometry relative="1" as="geometry" />
        </mxCell>
        <mxCell id="6K1Hj72WUw8g_JZl9jF_-118" value="Sucesso?" style="rhombus;whiteSpace=wrap;html=1;" parent="3" vertex="1">
          <mxGeometry x="238" y="828" width="80" height="80" as="geometry" />
        </mxCell>
        <mxCell id="6K1Hj72WUw8g_JZl9jF_-120" value="Mensagem de&amp;nbsp;&lt;div&gt;Erro&lt;/div&gt;" style="whiteSpace=wrap;html=1;rounded=1;" parent="3" vertex="1">
          <mxGeometry x="372" y="838" width="120" height="60" as="geometry" />
        </mxCell>
        <mxCell id="6K1Hj72WUw8g_JZl9jF_-122" value="No" style="text;html=1;align=center;verticalAlign=middle;resizable=0;points=[];autosize=1;strokeColor=none;fillColor=none;" parent="3" vertex="1">
          <mxGeometry x="318" y="841" width="33" height="26" as="geometry" />
        </mxCell>
        <mxCell id="6K1Hj72WUw8g_JZl9jF_-123" value="Mensagem de Sucesso" style="whiteSpace=wrap;html=1;rounded=1;" parent="3" vertex="1">
          <mxGeometry x="218" y="998" width="120" height="60" as="geometry" />
        </mxCell>
        <mxCell id="6K1Hj72WUw8g_JZl9jF_-125" value="Yes" style="text;html=1;align=center;verticalAlign=middle;resizable=0;points=[];autosize=1;strokeColor=none;fillColor=none;" parent="3" vertex="1">
          <mxGeometry x="277" y="921" width="38" height="26" as="geometry" />
        </mxCell>
        <mxCell id="6K1Hj72WUw8g_JZl9jF_-127" value="" style="edgeStyle=orthogonalEdgeStyle;rounded=0;orthogonalLoop=1;jettySize=auto;html=1;entryX=1;entryY=0.5;entryDx=0;entryDy=0;exitX=1;exitY=0.5;exitDx=0;exitDy=0;" parent="3" target="6K1Hj72WUw8g_JZl9jF_-86" edge="1">
          <mxGeometry relative="1" as="geometry">
            <mxPoint x="344.50000000000045" y="1028" as="sourcePoint" />
            <mxPoint x="-285.5" y="655.9999999999998" as="targetPoint" />
            <Array as="points">
              <mxPoint x="513" y="1028" />
              <mxPoint x="513" y="656" />
            </Array>
          </mxGeometry>
        </mxCell>
        <mxCell id="6K1Hj72WUw8g_JZl9jF_-145" value="Perfil&lt;div&gt;Data Call&lt;/div&gt;" style="whiteSpace=wrap;html=1;rounded=1;labelBackgroundColor=none;" parent="3" vertex="1">
          <mxGeometry x="256" y="506" width="120" height="60" as="geometry" />
        </mxCell>
        <mxCell id="kZ208NgF2_5xqIOdQBdR-127" value="" style="edgeStyle=orthogonalEdgeStyle;rounded=0;orthogonalLoop=1;jettySize=auto;html=1;entryX=0;entryY=0;entryDx=0;entryDy=0;" edge="1" parent="3">
          <mxGeometry relative="1" as="geometry">
            <mxPoint x="-1651" y="250" as="sourcePoint" />
            <mxPoint x="66" y="283" as="targetPoint" />
            <Array as="points">
              <mxPoint x="-1651" y="269" />
              <mxPoint x="66" y="269" />
            </Array>
          </mxGeometry>
        </mxCell>
        <mxCell id="6K1Hj72WUw8g_JZl9jF_-79" value="" style="rounded=0;orthogonalLoop=1;jettySize=auto;html=1;entryX=1;entryY=0.5;entryDx=0;entryDy=0;" parent="1" source="6K1Hj72WUw8g_JZl9jF_-75" target="6K1Hj72WUw8g_JZl9jF_-62" edge="1">
          <mxGeometry relative="1" as="geometry">
            <mxPoint x="530" y="341" as="targetPoint" />
          </mxGeometry>
        </mxCell>
        <mxCell id="6K1Hj72WUw8g_JZl9jF_-85" value="" style="edgeStyle=orthogonalEdgeStyle;rounded=0;orthogonalLoop=1;jettySize=auto;html=1;" parent="1" source="6K1Hj72WUw8g_JZl9jF_-80" target="6K1Hj72WUw8g_JZl9jF_-84" edge="1">
          <mxGeometry relative="1" as="geometry" />
        </mxCell>
        <mxCell id="6K1Hj72WUw8g_JZl9jF_-143" value="" style="edgeStyle=orthogonalEdgeStyle;rounded=0;orthogonalLoop=1;jettySize=auto;html=1;entryX=0.5;entryY=0;entryDx=0;entryDy=0;" parent="1" source="6K1Hj72WUw8g_JZl9jF_-141" target="6K1Hj72WUw8g_JZl9jF_-80" edge="1">
          <mxGeometry relative="1" as="geometry">
            <mxPoint x="302" y="452" as="targetPoint" />
            <Array as="points">
              <mxPoint x="677" y="479" />
              <mxPoint x="677" y="513" />
              <mxPoint x="1987" y="513" />
            </Array>
          </mxGeometry>
        </mxCell>
        <mxCell id="6K1Hj72WUw8g_JZl9jF_-146" value="" style="edgeStyle=orthogonalEdgeStyle;rounded=0;orthogonalLoop=1;jettySize=auto;html=1;exitX=1;exitY=0;exitDx=0;exitDy=0;" parent="1" source="6K1Hj72WUw8g_JZl9jF_-141" target="6K1Hj72WUw8g_JZl9jF_-145" edge="1">
          <mxGeometry relative="1" as="geometry" />
        </mxCell>
        <mxCell id="kZ208NgF2_5xqIOdQBdR-7" value="Autenticado" style="swimlane;whiteSpace=wrap;labelBackgroundColor=none;fontSize=11;" vertex="1" parent="1">
          <mxGeometry x="557" y="29" width="437" height="1600" as="geometry" />
        </mxCell>
        <mxCell id="kZ208NgF2_5xqIOdQBdR-8" value="" style="ellipse;shape=startState;labelBackgroundColor=none;" vertex="1" parent="kZ208NgF2_5xqIOdQBdR-7">
          <mxGeometry x="70" y="40" width="30" height="30" as="geometry" />
        </mxCell>
        <mxCell id="kZ208NgF2_5xqIOdQBdR-9" value="" style="edgeStyle=elbowEdgeStyle;elbow=horizontal;verticalAlign=bottom;endArrow=open;endSize=8;endFill=1;rounded=0;labelBackgroundColor=none;fontColor=default;" edge="1" parent="kZ208NgF2_5xqIOdQBdR-7" source="kZ208NgF2_5xqIOdQBdR-8" target="kZ208NgF2_5xqIOdQBdR-10">
          <mxGeometry x="100" y="40" as="geometry">
            <mxPoint x="85" y="110" as="targetPoint" />
          </mxGeometry>
        </mxCell>
        <mxCell id="kZ208NgF2_5xqIOdQBdR-10" value="Abrir Aplicação" style="labelBackgroundColor=none;rounded=1;" vertex="1" parent="kZ208NgF2_5xqIOdQBdR-7">
          <mxGeometry x="30" y="110" width="110" height="50" as="geometry" />
        </mxCell>
        <mxCell id="kZ208NgF2_5xqIOdQBdR-11" value="" style="edgeStyle=elbowEdgeStyle;elbow=horizontal;verticalAlign=bottom;endArrow=open;endSize=8;endFill=1;rounded=0;labelBackgroundColor=none;fontColor=default;exitX=0.5;exitY=1;exitDx=0;exitDy=0;" edge="1" parent="kZ208NgF2_5xqIOdQBdR-7" source="kZ208NgF2_5xqIOdQBdR-10" target="kZ208NgF2_5xqIOdQBdR-12">
          <mxGeometry x="-205" y="-88" as="geometry">
            <mxPoint x="85" y="210" as="targetPoint" />
            <mxPoint x="85" y="170" as="sourcePoint" />
          </mxGeometry>
        </mxCell>
        <mxCell id="kZ208NgF2_5xqIOdQBdR-12" value="Login" style="labelBackgroundColor=none;rounded=1;" vertex="1" parent="kZ208NgF2_5xqIOdQBdR-7">
          <mxGeometry x="30" y="200" width="110" height="50" as="geometry" />
        </mxCell>
        <mxCell id="kZ208NgF2_5xqIOdQBdR-13" value="Acessar Página&lt;div&gt;Principal&lt;/div&gt;" style="rounded=1;whiteSpace=wrap;html=1;labelBackgroundColor=none;" vertex="1" parent="kZ208NgF2_5xqIOdQBdR-7">
          <mxGeometry x="25" y="282.00000000000006" width="120" height="60" as="geometry" />
        </mxCell>
        <mxCell id="kZ208NgF2_5xqIOdQBdR-14" value="" style="edgeStyle=orthogonalEdgeStyle;rounded=0;orthogonalLoop=1;jettySize=auto;html=1;" edge="1" parent="kZ208NgF2_5xqIOdQBdR-7" source="kZ208NgF2_5xqIOdQBdR-15" target="kZ208NgF2_5xqIOdQBdR-16">
          <mxGeometry relative="1" as="geometry" />
        </mxCell>
        <mxCell id="kZ208NgF2_5xqIOdQBdR-15" value="&lt;div&gt;Listar Bactérias/&lt;/div&gt;&lt;div&gt;Leveduras&lt;/div&gt;&lt;div&gt;Autorizadas&lt;/div&gt;" style="whiteSpace=wrap;html=1;rounded=1;labelBackgroundColor=none;" vertex="1" parent="kZ208NgF2_5xqIOdQBdR-7">
          <mxGeometry x="25" y="505" width="120" height="60" as="geometry" />
        </mxCell>
        <mxCell id="kZ208NgF2_5xqIOdQBdR-16" value="&lt;div&gt;Selecionar&lt;/div&gt;&lt;div&gt;Bactéria/Levedura&lt;/div&gt;" style="whiteSpace=wrap;html=1;rounded=1;labelBackgroundColor=none;" vertex="1" parent="kZ208NgF2_5xqIOdQBdR-7">
          <mxGeometry x="25" y="625" width="120" height="60" as="geometry" />
        </mxCell>
        <mxCell id="kZ208NgF2_5xqIOdQBdR-17" value="" style="rounded=0;orthogonalLoop=1;jettySize=auto;html=1;exitX=0.5;exitY=1;exitDx=0;exitDy=0;entryX=0.5;entryY=0;entryDx=0;entryDy=0;" edge="1" parent="kZ208NgF2_5xqIOdQBdR-7" source="kZ208NgF2_5xqIOdQBdR-16" target="kZ208NgF2_5xqIOdQBdR-128">
          <mxGeometry relative="1" as="geometry">
            <mxPoint x="85" y="697" as="sourcePoint" />
            <mxPoint x="85.94117647058829" y="747.0588235294113" as="targetPoint" />
          </mxGeometry>
        </mxCell>
        <mxCell id="kZ208NgF2_5xqIOdQBdR-31" value="" style="edgeStyle=orthogonalEdgeStyle;rounded=0;orthogonalLoop=1;jettySize=auto;html=1;exitX=0.5;exitY=1;exitDx=0;exitDy=0;" edge="1" parent="kZ208NgF2_5xqIOdQBdR-7" source="kZ208NgF2_5xqIOdQBdR-13" target="kZ208NgF2_5xqIOdQBdR-32">
          <mxGeometry relative="1" as="geometry">
            <mxPoint x="295" y="290" as="sourcePoint" />
          </mxGeometry>
        </mxCell>
        <mxCell id="kZ208NgF2_5xqIOdQBdR-32" value="Selecionar&lt;div&gt;Ação&lt;/div&gt;" style="rhombus;whiteSpace=wrap;html=1;rounded=0;labelBackgroundColor=none;" vertex="1" parent="kZ208NgF2_5xqIOdQBdR-7">
          <mxGeometry x="30" y="387" width="110" height="84" as="geometry" />
        </mxCell>
        <mxCell id="kZ208NgF2_5xqIOdQBdR-33" value="Tipo de microorganismo" style="text;html=1;align=center;verticalAlign=middle;resizable=0;points=[];autosize=1;strokeColor=none;fillColor=none;" vertex="1" parent="kZ208NgF2_5xqIOdQBdR-7">
          <mxGeometry x="150" y="453" width="146" height="26" as="geometry" />
        </mxCell>
        <mxCell id="kZ208NgF2_5xqIOdQBdR-34" value="Perfil" style="text;html=1;align=center;verticalAlign=middle;resizable=0;points=[];autosize=1;strokeColor=none;fillColor=none;" vertex="1" parent="kZ208NgF2_5xqIOdQBdR-7">
          <mxGeometry x="154" y="383" width="45" height="26" as="geometry" />
        </mxCell>
        <mxCell id="kZ208NgF2_5xqIOdQBdR-35" value="" style="edgeStyle=orthogonalEdgeStyle;rounded=0;orthogonalLoop=1;jettySize=auto;html=1;" edge="1" parent="kZ208NgF2_5xqIOdQBdR-7" source="kZ208NgF2_5xqIOdQBdR-36" target="kZ208NgF2_5xqIOdQBdR-38">
          <mxGeometry relative="1" as="geometry" />
        </mxCell>
        <mxCell id="kZ208NgF2_5xqIOdQBdR-36" value="Ver Perfil" style="whiteSpace=wrap;html=1;rounded=1;labelBackgroundColor=none;" vertex="1" parent="kZ208NgF2_5xqIOdQBdR-7">
          <mxGeometry x="30" y="894" width="120" height="60" as="geometry" />
        </mxCell>
        <mxCell id="kZ208NgF2_5xqIOdQBdR-38" value="Selecionar&lt;div&gt;Ação&lt;/div&gt;" style="rhombus;whiteSpace=wrap;html=1;rounded=0;labelBackgroundColor=none;" vertex="1" parent="kZ208NgF2_5xqIOdQBdR-7">
          <mxGeometry x="50" y="1100" width="80" height="80" as="geometry" />
        </mxCell>
        <mxCell id="kZ208NgF2_5xqIOdQBdR-40" value="" style="rounded=0;orthogonalLoop=1;jettySize=auto;html=1;exitX=0.843;exitY=0.648;exitDx=0;exitDy=0;exitPerimeter=0;entryX=0;entryY=0.5;entryDx=0;entryDy=0;" edge="1" parent="kZ208NgF2_5xqIOdQBdR-7" source="kZ208NgF2_5xqIOdQBdR-38" target="kZ208NgF2_5xqIOdQBdR-41">
          <mxGeometry relative="1" as="geometry">
            <mxPoint x="119.95999999999998" y="1083" as="sourcePoint" />
            <mxPoint x="193" y="1145.4" as="targetPoint" />
          </mxGeometry>
        </mxCell>
        <mxCell id="kZ208NgF2_5xqIOdQBdR-41" value="Alterar Dados&lt;div&gt;Pessoais&lt;/div&gt;" style="whiteSpace=wrap;html=1;rounded=1;labelBackgroundColor=none;" vertex="1" parent="kZ208NgF2_5xqIOdQBdR-7">
          <mxGeometry x="199" y="1123" width="120" height="60" as="geometry" />
        </mxCell>
        <mxCell id="kZ208NgF2_5xqIOdQBdR-42" value="" style="edgeStyle=orthogonalEdgeStyle;rounded=0;orthogonalLoop=1;jettySize=auto;html=1;exitX=0.833;exitY=0.66;exitDx=0;exitDy=0;exitPerimeter=0;entryX=0;entryY=0.5;entryDx=0;entryDy=0;" edge="1" parent="kZ208NgF2_5xqIOdQBdR-7" source="kZ208NgF2_5xqIOdQBdR-38" target="kZ208NgF2_5xqIOdQBdR-44">
          <mxGeometry relative="1" as="geometry">
            <mxPoint x="117" y="1151" as="sourcePoint" />
            <mxPoint x="193" y="1220.4" as="targetPoint" />
          </mxGeometry>
        </mxCell>
        <mxCell id="kZ208NgF2_5xqIOdQBdR-43" value="" style="edgeStyle=orthogonalEdgeStyle;rounded=0;orthogonalLoop=1;jettySize=auto;html=1;entryX=0.5;entryY=0;entryDx=0;entryDy=0;" edge="1" parent="kZ208NgF2_5xqIOdQBdR-7" source="kZ208NgF2_5xqIOdQBdR-44" target="kZ208NgF2_5xqIOdQBdR-45">
          <mxGeometry relative="1" as="geometry">
            <mxPoint x="250" y="1310" as="targetPoint" />
          </mxGeometry>
        </mxCell>
        <mxCell id="kZ208NgF2_5xqIOdQBdR-44" value="Terminar Sessão" style="whiteSpace=wrap;html=1;rounded=1;labelBackgroundColor=none;" vertex="1" parent="kZ208NgF2_5xqIOdQBdR-7">
          <mxGeometry x="190" y="1258" width="120" height="60" as="geometry" />
        </mxCell>
        <mxCell id="kZ208NgF2_5xqIOdQBdR-45" value="" style="ellipse;html=1;shape=endState;fillColor=#000000;strokeColor=#FFFFFF;" vertex="1" parent="kZ208NgF2_5xqIOdQBdR-7">
          <mxGeometry x="235" y="1441" width="30" height="30" as="geometry" />
        </mxCell>
        <mxCell id="kZ208NgF2_5xqIOdQBdR-128" value="Ver Ficha&lt;div&gt;Técnica&lt;/div&gt;" style="whiteSpace=wrap;html=1;rounded=1;labelBackgroundColor=none;" vertex="1" parent="kZ208NgF2_5xqIOdQBdR-7">
          <mxGeometry x="25" y="770" width="120" height="60" as="geometry" />
        </mxCell>
        <mxCell id="kZ208NgF2_5xqIOdQBdR-46" value="Admin" style="swimlane;whiteSpace=wrap;labelBackgroundColor=none;fontSize=11;" vertex="1" parent="1">
          <mxGeometry x="994" y="29" width="437" height="1600" as="geometry" />
        </mxCell>
        <mxCell id="kZ208NgF2_5xqIOdQBdR-47" value="" style="ellipse;shape=startState;labelBackgroundColor=none;" vertex="1" parent="kZ208NgF2_5xqIOdQBdR-46">
          <mxGeometry x="70" y="40" width="30" height="30" as="geometry" />
        </mxCell>
        <mxCell id="kZ208NgF2_5xqIOdQBdR-48" value="" style="edgeStyle=elbowEdgeStyle;elbow=horizontal;verticalAlign=bottom;endArrow=open;endSize=8;endFill=1;rounded=0;labelBackgroundColor=none;fontColor=default;" edge="1" parent="kZ208NgF2_5xqIOdQBdR-46" source="kZ208NgF2_5xqIOdQBdR-47" target="kZ208NgF2_5xqIOdQBdR-49">
          <mxGeometry x="100" y="40" as="geometry">
            <mxPoint x="85" y="110" as="targetPoint" />
          </mxGeometry>
        </mxCell>
        <mxCell id="kZ208NgF2_5xqIOdQBdR-49" value="Abrir Aplicação" style="labelBackgroundColor=none;rounded=1;" vertex="1" parent="kZ208NgF2_5xqIOdQBdR-46">
          <mxGeometry x="30" y="110" width="110" height="50" as="geometry" />
        </mxCell>
        <mxCell id="kZ208NgF2_5xqIOdQBdR-50" value="" style="edgeStyle=elbowEdgeStyle;elbow=horizontal;verticalAlign=bottom;endArrow=open;endSize=8;endFill=1;rounded=0;labelBackgroundColor=none;fontColor=default;exitX=0.5;exitY=1;exitDx=0;exitDy=0;" edge="1" parent="kZ208NgF2_5xqIOdQBdR-46" source="kZ208NgF2_5xqIOdQBdR-49" target="kZ208NgF2_5xqIOdQBdR-51">
          <mxGeometry x="-205" y="-88" as="geometry">
            <mxPoint x="85" y="210" as="targetPoint" />
            <mxPoint x="85" y="170" as="sourcePoint" />
          </mxGeometry>
        </mxCell>
        <mxCell id="kZ208NgF2_5xqIOdQBdR-51" value="Login" style="labelBackgroundColor=none;rounded=1;" vertex="1" parent="kZ208NgF2_5xqIOdQBdR-46">
          <mxGeometry x="30" y="200" width="110" height="50" as="geometry" />
        </mxCell>
        <mxCell id="kZ208NgF2_5xqIOdQBdR-52" value="Acessar Página&lt;div&gt;Principal&lt;/div&gt;" style="rounded=1;whiteSpace=wrap;html=1;labelBackgroundColor=none;" vertex="1" parent="kZ208NgF2_5xqIOdQBdR-46">
          <mxGeometry x="25" y="282.00000000000006" width="120" height="60" as="geometry" />
        </mxCell>
        <mxCell id="kZ208NgF2_5xqIOdQBdR-53" value="" style="edgeStyle=orthogonalEdgeStyle;rounded=0;orthogonalLoop=1;jettySize=auto;html=1;" edge="1" parent="kZ208NgF2_5xqIOdQBdR-46" source="kZ208NgF2_5xqIOdQBdR-54" target="kZ208NgF2_5xqIOdQBdR-55">
          <mxGeometry relative="1" as="geometry" />
        </mxCell>
        <mxCell id="kZ208NgF2_5xqIOdQBdR-54" value="&lt;div&gt;Listar Todas as Bactérias/&lt;/div&gt;&lt;div&gt;Leveduras&lt;/div&gt;" style="whiteSpace=wrap;html=1;rounded=1;labelBackgroundColor=none;" vertex="1" parent="kZ208NgF2_5xqIOdQBdR-46">
          <mxGeometry x="25" y="505" width="120" height="60" as="geometry" />
        </mxCell>
        <mxCell id="kZ208NgF2_5xqIOdQBdR-55" value="&lt;div&gt;Selecionar&lt;/div&gt;&lt;div&gt;Bactéria/Levedura&lt;/div&gt;" style="whiteSpace=wrap;html=1;rounded=1;labelBackgroundColor=none;" vertex="1" parent="kZ208NgF2_5xqIOdQBdR-46">
          <mxGeometry x="25" y="625" width="120" height="60" as="geometry" />
        </mxCell>
        <mxCell id="kZ208NgF2_5xqIOdQBdR-56" value="" style="edgeStyle=orthogonalEdgeStyle;rounded=0;orthogonalLoop=1;jettySize=auto;html=1;exitX=0.5;exitY=1;exitDx=0;exitDy=0;" edge="1" parent="kZ208NgF2_5xqIOdQBdR-46" source="kZ208NgF2_5xqIOdQBdR-55" target="kZ208NgF2_5xqIOdQBdR-59">
          <mxGeometry relative="1" as="geometry">
            <mxPoint x="85" y="697" as="sourcePoint" />
          </mxGeometry>
        </mxCell>
        <mxCell id="kZ208NgF2_5xqIOdQBdR-57" value="" style="edgeStyle=orthogonalEdgeStyle;rounded=0;orthogonalLoop=1;jettySize=auto;html=1;" edge="1" parent="kZ208NgF2_5xqIOdQBdR-46" source="kZ208NgF2_5xqIOdQBdR-59" target="kZ208NgF2_5xqIOdQBdR-60">
          <mxGeometry relative="1" as="geometry" />
        </mxCell>
        <mxCell id="kZ208NgF2_5xqIOdQBdR-58" value="" style="edgeStyle=orthogonalEdgeStyle;rounded=0;orthogonalLoop=1;jettySize=auto;html=1;exitX=1;exitY=1;exitDx=0;exitDy=0;" edge="1" parent="kZ208NgF2_5xqIOdQBdR-46" source="kZ208NgF2_5xqIOdQBdR-59" target="kZ208NgF2_5xqIOdQBdR-61">
          <mxGeometry relative="1" as="geometry">
            <Array as="points">
              <mxPoint x="106" y="870" />
            </Array>
          </mxGeometry>
        </mxCell>
        <mxCell id="kZ208NgF2_5xqIOdQBdR-59" value="Gestão" style="rhombus;whiteSpace=wrap;html=1;rounded=0;labelBackgroundColor=none;" vertex="1" parent="kZ208NgF2_5xqIOdQBdR-46">
          <mxGeometry x="46" y="747" width="80" height="80" as="geometry" />
        </mxCell>
        <mxCell id="kZ208NgF2_5xqIOdQBdR-60" value="Formulário de&lt;div&gt;Criação&lt;/div&gt;" style="whiteSpace=wrap;html=1;rounded=1;labelBackgroundColor=none;" vertex="1" parent="kZ208NgF2_5xqIOdQBdR-46">
          <mxGeometry x="193" y="757" width="120" height="60" as="geometry" />
        </mxCell>
        <mxCell id="kZ208NgF2_5xqIOdQBdR-61" value="Formulário de&lt;div&gt;Edição&lt;/div&gt;" style="whiteSpace=wrap;html=1;rounded=1;labelBackgroundColor=none;" vertex="1" parent="kZ208NgF2_5xqIOdQBdR-46">
          <mxGeometry x="193" y="837" width="120" height="60" as="geometry" />
        </mxCell>
        <mxCell id="kZ208NgF2_5xqIOdQBdR-64" value="" style="edgeStyle=orthogonalEdgeStyle;rounded=0;orthogonalLoop=1;jettySize=auto;html=1;exitX=1;exitY=1;exitDx=0;exitDy=0;" edge="1" parent="kZ208NgF2_5xqIOdQBdR-46" source="kZ208NgF2_5xqIOdQBdR-59" target="kZ208NgF2_5xqIOdQBdR-65">
          <mxGeometry relative="1" as="geometry">
            <mxPoint x="95" y="899" as="sourcePoint" />
            <Array as="points">
              <mxPoint x="106" y="950" />
            </Array>
          </mxGeometry>
        </mxCell>
        <mxCell id="kZ208NgF2_5xqIOdQBdR-65" value="Ver Ficha&lt;div&gt;Técnica&lt;/div&gt;" style="whiteSpace=wrap;html=1;rounded=1;labelBackgroundColor=none;" vertex="1" parent="kZ208NgF2_5xqIOdQBdR-46">
          <mxGeometry x="193" y="920" width="120" height="60" as="geometry" />
        </mxCell>
        <mxCell id="kZ208NgF2_5xqIOdQBdR-66" value="Detalhes" style="text;html=1;align=center;verticalAlign=middle;resizable=0;points=[];autosize=1;strokeColor=none;fillColor=none;" vertex="1" parent="kZ208NgF2_5xqIOdQBdR-46">
          <mxGeometry x="112.5" y="922" width="65" height="26" as="geometry" />
        </mxCell>
        <mxCell id="kZ208NgF2_5xqIOdQBdR-67" value="Criar" style="text;html=1;align=center;verticalAlign=middle;resizable=0;points=[];autosize=1;strokeColor=none;fillColor=none;" vertex="1" parent="kZ208NgF2_5xqIOdQBdR-46">
          <mxGeometry x="123" y="763" width="44" height="26" as="geometry" />
        </mxCell>
        <mxCell id="kZ208NgF2_5xqIOdQBdR-68" value="Editar" style="text;html=1;align=center;verticalAlign=middle;resizable=0;points=[];autosize=1;strokeColor=none;fillColor=none;" vertex="1" parent="kZ208NgF2_5xqIOdQBdR-46">
          <mxGeometry x="105" y="845" width="49" height="26" as="geometry" />
        </mxCell>
        <mxCell id="kZ208NgF2_5xqIOdQBdR-70" value="" style="edgeStyle=orthogonalEdgeStyle;rounded=0;orthogonalLoop=1;jettySize=auto;html=1;exitX=0.5;exitY=1;exitDx=0;exitDy=0;" edge="1" parent="kZ208NgF2_5xqIOdQBdR-46" source="kZ208NgF2_5xqIOdQBdR-52" target="kZ208NgF2_5xqIOdQBdR-71">
          <mxGeometry relative="1" as="geometry">
            <mxPoint x="295" y="290" as="sourcePoint" />
          </mxGeometry>
        </mxCell>
        <mxCell id="kZ208NgF2_5xqIOdQBdR-71" value="Selecionar&lt;div&gt;Ação&lt;/div&gt;" style="rhombus;whiteSpace=wrap;html=1;rounded=0;labelBackgroundColor=none;" vertex="1" parent="kZ208NgF2_5xqIOdQBdR-46">
          <mxGeometry x="30" y="387" width="110" height="84" as="geometry" />
        </mxCell>
        <mxCell id="kZ208NgF2_5xqIOdQBdR-72" value="Tipo de microorganismo" style="text;html=1;align=center;verticalAlign=middle;resizable=0;points=[];autosize=1;strokeColor=none;fillColor=none;" vertex="1" parent="kZ208NgF2_5xqIOdQBdR-46">
          <mxGeometry x="150" y="452" width="146" height="26" as="geometry" />
        </mxCell>
        <mxCell id="kZ208NgF2_5xqIOdQBdR-73" value="Perfil" style="text;html=1;align=center;verticalAlign=middle;resizable=0;points=[];autosize=1;strokeColor=none;fillColor=none;" vertex="1" parent="kZ208NgF2_5xqIOdQBdR-46">
          <mxGeometry x="154" y="383" width="45" height="26" as="geometry" />
        </mxCell>
        <mxCell id="kZ208NgF2_5xqIOdQBdR-74" value="" style="edgeStyle=orthogonalEdgeStyle;rounded=0;orthogonalLoop=1;jettySize=auto;html=1;" edge="1" parent="kZ208NgF2_5xqIOdQBdR-46" source="kZ208NgF2_5xqIOdQBdR-75" target="kZ208NgF2_5xqIOdQBdR-77">
          <mxGeometry relative="1" as="geometry" />
        </mxCell>
        <mxCell id="kZ208NgF2_5xqIOdQBdR-75" value="Ver Perfil" style="whiteSpace=wrap;html=1;rounded=1;labelBackgroundColor=none;" vertex="1" parent="kZ208NgF2_5xqIOdQBdR-46">
          <mxGeometry x="30" y="1126" width="120" height="60" as="geometry" />
        </mxCell>
        <mxCell id="kZ208NgF2_5xqIOdQBdR-77" value="Selecionar&lt;div&gt;Ação&lt;/div&gt;" style="rhombus;whiteSpace=wrap;html=1;rounded=0;labelBackgroundColor=none;" vertex="1" parent="kZ208NgF2_5xqIOdQBdR-46">
          <mxGeometry x="50" y="1256" width="80" height="80" as="geometry" />
        </mxCell>
        <mxCell id="kZ208NgF2_5xqIOdQBdR-79" value="" style="rounded=0;orthogonalLoop=1;jettySize=auto;html=1;exitX=0.843;exitY=0.648;exitDx=0;exitDy=0;exitPerimeter=0;entryX=0;entryY=0.5;entryDx=0;entryDy=0;" edge="1" parent="kZ208NgF2_5xqIOdQBdR-46" source="kZ208NgF2_5xqIOdQBdR-77" target="kZ208NgF2_5xqIOdQBdR-80">
          <mxGeometry relative="1" as="geometry">
            <mxPoint x="119.95999999999998" y="1315" as="sourcePoint" />
            <mxPoint x="193" y="1377.4" as="targetPoint" />
          </mxGeometry>
        </mxCell>
        <mxCell id="kZ208NgF2_5xqIOdQBdR-80" value="Alterar Dados&lt;div&gt;Pessoais&lt;/div&gt;" style="whiteSpace=wrap;html=1;rounded=1;labelBackgroundColor=none;" vertex="1" parent="kZ208NgF2_5xqIOdQBdR-46">
          <mxGeometry x="205" y="1278" width="120" height="60" as="geometry" />
        </mxCell>
        <mxCell id="kZ208NgF2_5xqIOdQBdR-81" value="" style="edgeStyle=orthogonalEdgeStyle;rounded=0;orthogonalLoop=1;jettySize=auto;html=1;exitX=0.833;exitY=0.66;exitDx=0;exitDy=0;exitPerimeter=0;entryX=0;entryY=0.5;entryDx=0;entryDy=0;" edge="1" parent="kZ208NgF2_5xqIOdQBdR-46" source="kZ208NgF2_5xqIOdQBdR-77" target="kZ208NgF2_5xqIOdQBdR-83">
          <mxGeometry relative="1" as="geometry">
            <mxPoint x="117" y="1383" as="sourcePoint" />
            <mxPoint x="193" y="1452.4" as="targetPoint" />
          </mxGeometry>
        </mxCell>
        <mxCell id="kZ208NgF2_5xqIOdQBdR-82" value="" style="edgeStyle=orthogonalEdgeStyle;rounded=0;orthogonalLoop=1;jettySize=auto;html=1;entryX=0.5;entryY=0;entryDx=0;entryDy=0;" edge="1" parent="kZ208NgF2_5xqIOdQBdR-46" source="kZ208NgF2_5xqIOdQBdR-83" target="kZ208NgF2_5xqIOdQBdR-84">
          <mxGeometry relative="1" as="geometry">
            <mxPoint x="250" y="1542" as="targetPoint" />
          </mxGeometry>
        </mxCell>
        <mxCell id="kZ208NgF2_5xqIOdQBdR-83" value="Terminar Sessão" style="whiteSpace=wrap;html=1;rounded=1;labelBackgroundColor=none;" vertex="1" parent="kZ208NgF2_5xqIOdQBdR-46">
          <mxGeometry x="205" y="1363" width="120" height="60" as="geometry" />
        </mxCell>
        <mxCell id="kZ208NgF2_5xqIOdQBdR-84" value="" style="ellipse;html=1;shape=endState;fillColor=#000000;strokeColor=#FFFFFF;" vertex="1" parent="kZ208NgF2_5xqIOdQBdR-46">
          <mxGeometry x="250" y="1546" width="30" height="30" as="geometry" />
        </mxCell>
        <mxCell id="kZ208NgF2_5xqIOdQBdR-85" value="Super Admin" style="swimlane;whiteSpace=wrap;labelBackgroundColor=none;fontSize=11;" vertex="1" parent="1">
          <mxGeometry x="1431" y="29" width="437" height="1600" as="geometry" />
        </mxCell>
        <mxCell id="kZ208NgF2_5xqIOdQBdR-86" value="" style="ellipse;shape=startState;labelBackgroundColor=none;" vertex="1" parent="kZ208NgF2_5xqIOdQBdR-85">
          <mxGeometry x="70" y="40" width="30" height="30" as="geometry" />
        </mxCell>
        <mxCell id="kZ208NgF2_5xqIOdQBdR-87" value="" style="edgeStyle=elbowEdgeStyle;elbow=horizontal;verticalAlign=bottom;endArrow=open;endSize=8;endFill=1;rounded=0;labelBackgroundColor=none;fontColor=default;" edge="1" parent="kZ208NgF2_5xqIOdQBdR-85" source="kZ208NgF2_5xqIOdQBdR-86" target="kZ208NgF2_5xqIOdQBdR-88">
          <mxGeometry x="100" y="40" as="geometry">
            <mxPoint x="85" y="110" as="targetPoint" />
          </mxGeometry>
        </mxCell>
        <mxCell id="kZ208NgF2_5xqIOdQBdR-88" value="Abrir Aplicação" style="labelBackgroundColor=none;rounded=1;" vertex="1" parent="kZ208NgF2_5xqIOdQBdR-85">
          <mxGeometry x="30" y="110" width="110" height="50" as="geometry" />
        </mxCell>
        <mxCell id="kZ208NgF2_5xqIOdQBdR-89" value="" style="edgeStyle=elbowEdgeStyle;elbow=horizontal;verticalAlign=bottom;endArrow=open;endSize=8;endFill=1;rounded=0;labelBackgroundColor=none;fontColor=default;exitX=0.5;exitY=1;exitDx=0;exitDy=0;" edge="1" parent="kZ208NgF2_5xqIOdQBdR-85" source="kZ208NgF2_5xqIOdQBdR-88" target="kZ208NgF2_5xqIOdQBdR-90">
          <mxGeometry x="-205" y="-88" as="geometry">
            <mxPoint x="85" y="210" as="targetPoint" />
            <mxPoint x="85" y="170" as="sourcePoint" />
          </mxGeometry>
        </mxCell>
        <mxCell id="kZ208NgF2_5xqIOdQBdR-90" value="Login" style="labelBackgroundColor=none;rounded=1;" vertex="1" parent="kZ208NgF2_5xqIOdQBdR-85">
          <mxGeometry x="30" y="200" width="110" height="50" as="geometry" />
        </mxCell>
        <mxCell id="kZ208NgF2_5xqIOdQBdR-91" value="Acessar Página&lt;div&gt;Principal&lt;/div&gt;" style="rounded=1;whiteSpace=wrap;html=1;labelBackgroundColor=none;" vertex="1" parent="kZ208NgF2_5xqIOdQBdR-85">
          <mxGeometry x="25" y="282.00000000000006" width="120" height="60" as="geometry" />
        </mxCell>
        <mxCell id="kZ208NgF2_5xqIOdQBdR-92" value="" style="edgeStyle=orthogonalEdgeStyle;rounded=0;orthogonalLoop=1;jettySize=auto;html=1;" edge="1" parent="kZ208NgF2_5xqIOdQBdR-85" source="kZ208NgF2_5xqIOdQBdR-93" target="kZ208NgF2_5xqIOdQBdR-94">
          <mxGeometry relative="1" as="geometry" />
        </mxCell>
        <mxCell id="kZ208NgF2_5xqIOdQBdR-93" value="&lt;div&gt;Listar Todas as Bactérias/&lt;/div&gt;&lt;div&gt;Leveduras&lt;/div&gt;" style="whiteSpace=wrap;html=1;rounded=1;labelBackgroundColor=none;" vertex="1" parent="kZ208NgF2_5xqIOdQBdR-85">
          <mxGeometry x="25" y="505" width="120" height="60" as="geometry" />
        </mxCell>
        <mxCell id="kZ208NgF2_5xqIOdQBdR-94" value="&lt;div&gt;Selecionar&lt;/div&gt;&lt;div&gt;Bactéria/Levedura&lt;/div&gt;" style="whiteSpace=wrap;html=1;rounded=1;labelBackgroundColor=none;" vertex="1" parent="kZ208NgF2_5xqIOdQBdR-85">
          <mxGeometry x="25" y="625" width="120" height="60" as="geometry" />
        </mxCell>
        <mxCell id="kZ208NgF2_5xqIOdQBdR-95" value="" style="edgeStyle=orthogonalEdgeStyle;rounded=0;orthogonalLoop=1;jettySize=auto;html=1;exitX=0.5;exitY=1;exitDx=0;exitDy=0;" edge="1" parent="kZ208NgF2_5xqIOdQBdR-85" source="kZ208NgF2_5xqIOdQBdR-94" target="kZ208NgF2_5xqIOdQBdR-98">
          <mxGeometry relative="1" as="geometry">
            <mxPoint x="85" y="697" as="sourcePoint" />
          </mxGeometry>
        </mxCell>
        <mxCell id="kZ208NgF2_5xqIOdQBdR-96" value="" style="edgeStyle=orthogonalEdgeStyle;rounded=0;orthogonalLoop=1;jettySize=auto;html=1;" edge="1" parent="kZ208NgF2_5xqIOdQBdR-85" source="kZ208NgF2_5xqIOdQBdR-98" target="kZ208NgF2_5xqIOdQBdR-99">
          <mxGeometry relative="1" as="geometry" />
        </mxCell>
        <mxCell id="kZ208NgF2_5xqIOdQBdR-97" value="" style="edgeStyle=orthogonalEdgeStyle;rounded=0;orthogonalLoop=1;jettySize=auto;html=1;exitX=1;exitY=1;exitDx=0;exitDy=0;" edge="1" parent="kZ208NgF2_5xqIOdQBdR-85" source="kZ208NgF2_5xqIOdQBdR-98" target="kZ208NgF2_5xqIOdQBdR-100">
          <mxGeometry relative="1" as="geometry">
            <Array as="points">
              <mxPoint x="106" y="870" />
            </Array>
          </mxGeometry>
        </mxCell>
        <mxCell id="kZ208NgF2_5xqIOdQBdR-98" value="Gestão" style="rhombus;whiteSpace=wrap;html=1;rounded=0;labelBackgroundColor=none;" vertex="1" parent="kZ208NgF2_5xqIOdQBdR-85">
          <mxGeometry x="46" y="747" width="80" height="80" as="geometry" />
        </mxCell>
        <mxCell id="kZ208NgF2_5xqIOdQBdR-99" value="Formulário de&lt;div&gt;Criação&lt;/div&gt;" style="whiteSpace=wrap;html=1;rounded=1;labelBackgroundColor=none;" vertex="1" parent="kZ208NgF2_5xqIOdQBdR-85">
          <mxGeometry x="193" y="757" width="120" height="60" as="geometry" />
        </mxCell>
        <mxCell id="kZ208NgF2_5xqIOdQBdR-100" value="Formulário de&lt;div&gt;Edição&lt;/div&gt;" style="whiteSpace=wrap;html=1;rounded=1;labelBackgroundColor=none;" vertex="1" parent="kZ208NgF2_5xqIOdQBdR-85">
          <mxGeometry x="193" y="837" width="120" height="60" as="geometry" />
        </mxCell>
        <mxCell id="kZ208NgF2_5xqIOdQBdR-101" value="" style="edgeStyle=orthogonalEdgeStyle;rounded=0;orthogonalLoop=1;jettySize=auto;html=1;exitX=1;exitY=1;exitDx=0;exitDy=0;" edge="1" parent="kZ208NgF2_5xqIOdQBdR-85" source="kZ208NgF2_5xqIOdQBdR-98" target="kZ208NgF2_5xqIOdQBdR-102">
          <mxGeometry relative="1" as="geometry">
            <mxPoint x="106" y="885" as="sourcePoint" />
            <Array as="points">
              <mxPoint x="106" y="945" />
            </Array>
          </mxGeometry>
        </mxCell>
        <mxCell id="kZ208NgF2_5xqIOdQBdR-102" value="Eliminar" style="whiteSpace=wrap;html=1;rounded=1;labelBackgroundColor=none;" vertex="1" parent="kZ208NgF2_5xqIOdQBdR-85">
          <mxGeometry x="193" y="915" width="120" height="60" as="geometry" />
        </mxCell>
        <mxCell id="kZ208NgF2_5xqIOdQBdR-103" value="" style="edgeStyle=orthogonalEdgeStyle;rounded=0;orthogonalLoop=1;jettySize=auto;html=1;exitX=1;exitY=1;exitDx=0;exitDy=0;" edge="1" parent="kZ208NgF2_5xqIOdQBdR-85" source="kZ208NgF2_5xqIOdQBdR-98" target="kZ208NgF2_5xqIOdQBdR-104">
          <mxGeometry relative="1" as="geometry">
            <mxPoint x="95" y="899" as="sourcePoint" />
            <Array as="points">
              <mxPoint x="106" y="1024" />
            </Array>
          </mxGeometry>
        </mxCell>
        <mxCell id="kZ208NgF2_5xqIOdQBdR-104" value="Ver Ficha&lt;div&gt;Técnica&lt;/div&gt;" style="whiteSpace=wrap;html=1;rounded=1;labelBackgroundColor=none;" vertex="1" parent="kZ208NgF2_5xqIOdQBdR-85">
          <mxGeometry x="193" y="994" width="120" height="60" as="geometry" />
        </mxCell>
        <mxCell id="kZ208NgF2_5xqIOdQBdR-105" value="Detalhes" style="text;html=1;align=center;verticalAlign=middle;resizable=0;points=[];autosize=1;strokeColor=none;fillColor=none;" vertex="1" parent="kZ208NgF2_5xqIOdQBdR-85">
          <mxGeometry x="100" y="1001" width="65" height="26" as="geometry" />
        </mxCell>
        <mxCell id="kZ208NgF2_5xqIOdQBdR-106" value="Criar" style="text;html=1;align=center;verticalAlign=middle;resizable=0;points=[];autosize=1;strokeColor=none;fillColor=none;" vertex="1" parent="kZ208NgF2_5xqIOdQBdR-85">
          <mxGeometry x="123" y="763" width="44" height="26" as="geometry" />
        </mxCell>
        <mxCell id="kZ208NgF2_5xqIOdQBdR-107" value="Editar" style="text;html=1;align=center;verticalAlign=middle;resizable=0;points=[];autosize=1;strokeColor=none;fillColor=none;" vertex="1" parent="kZ208NgF2_5xqIOdQBdR-85">
          <mxGeometry x="105" y="845" width="49" height="26" as="geometry" />
        </mxCell>
        <mxCell id="kZ208NgF2_5xqIOdQBdR-108" value="Eliminar" style="text;html=1;align=center;verticalAlign=middle;resizable=0;points=[];autosize=1;strokeColor=none;fillColor=none;" vertex="1" parent="kZ208NgF2_5xqIOdQBdR-85">
          <mxGeometry x="104" y="921" width="61" height="26" as="geometry" />
        </mxCell>
        <mxCell id="kZ208NgF2_5xqIOdQBdR-109" value="" style="edgeStyle=orthogonalEdgeStyle;rounded=0;orthogonalLoop=1;jettySize=auto;html=1;exitX=0.5;exitY=1;exitDx=0;exitDy=0;" edge="1" parent="kZ208NgF2_5xqIOdQBdR-85" source="kZ208NgF2_5xqIOdQBdR-91" target="kZ208NgF2_5xqIOdQBdR-110">
          <mxGeometry relative="1" as="geometry">
            <mxPoint x="295" y="290" as="sourcePoint" />
          </mxGeometry>
        </mxCell>
        <mxCell id="kZ208NgF2_5xqIOdQBdR-110" value="Selecionar&lt;div&gt;Ação&lt;/div&gt;" style="rhombus;whiteSpace=wrap;html=1;rounded=0;labelBackgroundColor=none;" vertex="1" parent="kZ208NgF2_5xqIOdQBdR-85">
          <mxGeometry x="30" y="387" width="110" height="84" as="geometry" />
        </mxCell>
        <mxCell id="kZ208NgF2_5xqIOdQBdR-111" value="Tipo de microorganismo" style="text;html=1;align=center;verticalAlign=middle;resizable=0;points=[];autosize=1;strokeColor=none;fillColor=none;" vertex="1" parent="kZ208NgF2_5xqIOdQBdR-85">
          <mxGeometry x="154" y="455" width="146" height="26" as="geometry" />
        </mxCell>
        <mxCell id="kZ208NgF2_5xqIOdQBdR-112" value="Perfil" style="text;html=1;align=center;verticalAlign=middle;resizable=0;points=[];autosize=1;strokeColor=none;fillColor=none;" vertex="1" parent="kZ208NgF2_5xqIOdQBdR-85">
          <mxGeometry x="154" y="383" width="45" height="26" as="geometry" />
        </mxCell>
        <mxCell id="kZ208NgF2_5xqIOdQBdR-113" value="" style="edgeStyle=orthogonalEdgeStyle;rounded=0;orthogonalLoop=1;jettySize=auto;html=1;" edge="1" parent="kZ208NgF2_5xqIOdQBdR-85" source="kZ208NgF2_5xqIOdQBdR-114" target="kZ208NgF2_5xqIOdQBdR-116">
          <mxGeometry relative="1" as="geometry" />
        </mxCell>
        <mxCell id="kZ208NgF2_5xqIOdQBdR-114" value="Ver Perfil" style="whiteSpace=wrap;html=1;rounded=1;labelBackgroundColor=none;" vertex="1" parent="kZ208NgF2_5xqIOdQBdR-85">
          <mxGeometry x="30" y="1126" width="120" height="60" as="geometry" />
        </mxCell>
        <mxCell id="kZ208NgF2_5xqIOdQBdR-115" value="" style="edgeStyle=orthogonalEdgeStyle;rounded=0;orthogonalLoop=1;jettySize=auto;html=1;" edge="1" parent="kZ208NgF2_5xqIOdQBdR-85" source="kZ208NgF2_5xqIOdQBdR-116" target="kZ208NgF2_5xqIOdQBdR-117">
          <mxGeometry relative="1" as="geometry" />
        </mxCell>
        <mxCell id="kZ208NgF2_5xqIOdQBdR-116" value="Selecionar&lt;div&gt;Ação&lt;/div&gt;" style="rhombus;whiteSpace=wrap;html=1;rounded=0;labelBackgroundColor=none;" vertex="1" parent="kZ208NgF2_5xqIOdQBdR-85">
          <mxGeometry x="50" y="1256" width="80" height="80" as="geometry" />
        </mxCell>
        <mxCell id="kZ208NgF2_5xqIOdQBdR-117" value="Listar Utilizadores" style="whiteSpace=wrap;html=1;rounded=1;labelBackgroundColor=none;" vertex="1" parent="kZ208NgF2_5xqIOdQBdR-85">
          <mxGeometry x="190" y="1266" width="120" height="60" as="geometry" />
        </mxCell>
        <mxCell id="kZ208NgF2_5xqIOdQBdR-118" value="" style="edgeStyle=orthogonalEdgeStyle;rounded=0;orthogonalLoop=1;jettySize=auto;html=1;exitX=0.843;exitY=0.648;exitDx=0;exitDy=0;exitPerimeter=0;entryX=0;entryY=0.5;entryDx=0;entryDy=0;" edge="1" parent="kZ208NgF2_5xqIOdQBdR-85" source="kZ208NgF2_5xqIOdQBdR-116" target="kZ208NgF2_5xqIOdQBdR-119">
          <mxGeometry relative="1" as="geometry">
            <mxPoint x="119.95999999999998" y="1315" as="sourcePoint" />
            <mxPoint x="193" y="1377.4" as="targetPoint" />
            <Array as="points">
              <mxPoint x="117" y="1370" />
            </Array>
          </mxGeometry>
        </mxCell>
        <mxCell id="kZ208NgF2_5xqIOdQBdR-119" value="Alterar Dados&lt;div&gt;Pessoais&lt;/div&gt;" style="whiteSpace=wrap;html=1;rounded=1;labelBackgroundColor=none;" vertex="1" parent="kZ208NgF2_5xqIOdQBdR-85">
          <mxGeometry x="190" y="1340" width="120" height="60" as="geometry" />
        </mxCell>
        <mxCell id="kZ208NgF2_5xqIOdQBdR-120" value="" style="edgeStyle=orthogonalEdgeStyle;rounded=0;orthogonalLoop=1;jettySize=auto;html=1;exitX=0.833;exitY=0.66;exitDx=0;exitDy=0;exitPerimeter=0;entryX=0;entryY=0.5;entryDx=0;entryDy=0;" edge="1" parent="kZ208NgF2_5xqIOdQBdR-85" source="kZ208NgF2_5xqIOdQBdR-116" target="kZ208NgF2_5xqIOdQBdR-122">
          <mxGeometry relative="1" as="geometry">
            <mxPoint x="117" y="1383" as="sourcePoint" />
            <mxPoint x="193" y="1452.4" as="targetPoint" />
            <Array as="points">
              <mxPoint x="117" y="1445" />
            </Array>
          </mxGeometry>
        </mxCell>
        <mxCell id="kZ208NgF2_5xqIOdQBdR-121" value="" style="edgeStyle=orthogonalEdgeStyle;rounded=0;orthogonalLoop=1;jettySize=auto;html=1;entryX=0.5;entryY=0;entryDx=0;entryDy=0;" edge="1" parent="kZ208NgF2_5xqIOdQBdR-85" source="kZ208NgF2_5xqIOdQBdR-122" target="kZ208NgF2_5xqIOdQBdR-123">
          <mxGeometry relative="1" as="geometry">
            <mxPoint x="250" y="1542" as="targetPoint" />
          </mxGeometry>
        </mxCell>
        <mxCell id="kZ208NgF2_5xqIOdQBdR-122" value="Terminar Sessão" style="whiteSpace=wrap;html=1;rounded=1;labelBackgroundColor=none;" vertex="1" parent="kZ208NgF2_5xqIOdQBdR-85">
          <mxGeometry x="190" y="1415" width="120" height="60" as="geometry" />
        </mxCell>
        <mxCell id="kZ208NgF2_5xqIOdQBdR-123" value="" style="ellipse;html=1;shape=endState;fillColor=#000000;strokeColor=#FFFFFF;" vertex="1" parent="kZ208NgF2_5xqIOdQBdR-85">
          <mxGeometry x="235" y="1547" width="30" height="30" as="geometry" />
        </mxCell>
        <mxCell id="kZ208NgF2_5xqIOdQBdR-132" value="" style="edgeStyle=orthogonalEdgeStyle;rounded=0;orthogonalLoop=1;jettySize=auto;html=1;entryX=1;entryY=0.5;entryDx=0;entryDy=0;" edge="1" parent="1" source="6K1Hj72WUw8g_JZl9jF_-145" target="kZ208NgF2_5xqIOdQBdR-36">
          <mxGeometry relative="1" as="geometry">
            <mxPoint x="2184" y="675" as="targetPoint" />
            <Array as="points">
              <mxPoint x="2184" y="705" />
              <mxPoint x="1893" y="705" />
              <mxPoint x="1893" y="1121" />
              <mxPoint x="734" y="1121" />
              <mxPoint x="734" y="953" />
            </Array>
          </mxGeometry>
        </mxCell>
        <mxCell id="kZ208NgF2_5xqIOdQBdR-134" value="" style="edgeStyle=orthogonalEdgeStyle;rounded=0;orthogonalLoop=1;jettySize=auto;html=1;entryX=0.5;entryY=0;entryDx=0;entryDy=0;exitX=0.75;exitY=1;exitDx=0;exitDy=0;" edge="1" parent="1" source="6K1Hj72WUw8g_JZl9jF_-145" target="kZ208NgF2_5xqIOdQBdR-75">
          <mxGeometry relative="1" as="geometry">
            <mxPoint x="2324" y="565" as="targetPoint" />
            <Array as="points">
              <mxPoint x="2214" y="718" />
              <mxPoint x="1905" y="718" />
              <mxPoint x="1905" y="1131" />
              <mxPoint x="1084" y="1131" />
            </Array>
          </mxGeometry>
        </mxCell>
        <mxCell id="kZ208NgF2_5xqIOdQBdR-135" value="" style="edgeStyle=orthogonalEdgeStyle;rounded=0;orthogonalLoop=1;jettySize=auto;html=1;entryX=1;entryY=0.5;entryDx=0;entryDy=0;exitX=1;exitY=0.5;exitDx=0;exitDy=0;" edge="1" parent="1" source="6K1Hj72WUw8g_JZl9jF_-145" target="kZ208NgF2_5xqIOdQBdR-114">
          <mxGeometry relative="1" as="geometry">
            <mxPoint x="2224" y="605" as="sourcePoint" />
            <mxPoint x="1094" y="1165" as="targetPoint" />
            <Array as="points">
              <mxPoint x="2414" y="565" />
              <mxPoint x="2414" y="1185" />
            </Array>
          </mxGeometry>
        </mxCell>
      </root>
    </mxGraphModel>
  </diagram>
</mxfile>
